<svg id="logosandtypes_com" data-name="logosandtypes com" xmlns="http://www.w3.org/2000/svg" viewBox="0 0 150 150"><defs><style>.cls-1{fill:none;}.cls-2{fill:#f47d20;}</style></defs><path class="cls-1" d="M0,0H150V150H0Z" transform="translate(0 0)"/><path class="cls-2" d="M26.18,133.88l17.88,0a2.88,2.88,0,0,0,2.36-1.28L70.71,97.13a3.05,3.05,0,0,0,0-3.4L60.91,79.4a2.9,2.9,0,0,0-4.83,0l-32.41,49.8a3,3,0,0,0,2.51,4.63" transform="translate(0 0)"/><path class="cls-2" d="M94.26,64.32l31.43-45.81a3,3,0,0,0-2.37-4.68H105.59a2.91,2.91,0,0,0-2.37,1.28L81,48a3.06,3.06,0,0,0,0,3.35l8.47,13a2.94,2.94,0,0,0,4.88,0" transform="translate(0 0)"/><path class="cls-2" d="M66.52,38.56l41.58,63.25a3,3,0,0,1-2.41,4.58H85.88a2.84,2.84,0,0,1-2.41-1.33L42.19,41.86a3,3,0,0,1,2.41-4.58H64.16a2.88,2.88,0,0,1,2.36,1.28" transform="translate(0 0)"/></svg>